<svg width="35" height="24" viewBox="0 0 35 24" fill="none" xmlns="http://www.w3.org/2000/svg">
<path d="M33.3864 10.9645L23.8648 -9.44186e-07L23.8648 7.30435L27.9425 12L23.8648 16.6957L23.8648 24L33.3864 13.0355C33.8831 12.4636 33.8831 11.5364 33.3864 10.9645Z" fill="url(#paint0_linear_964_12824)"/>
<path d="M0.899216 13.0355L10.4208 24L10.4208 16.6957L6.34312 12L10.4208 7.30435L10.4208 -9.26509e-08L0.899217 10.9645C0.402593 11.5364 0.402592 12.4636 0.899216 13.0355Z" fill="url(#paint1_linear_964_12824)"/>
<path d="M11.0638 0.0104525L11.0638 7.27828L14.0572 11.3876L16.7274 7.76811L11.0638 0.0104525Z" fill="#990025"/>
<path d="M23.238 16.686L23.238 23.9906L17.5697 16.2093L20.2287 12.5639L23.238 16.686Z" fill="#990025"/>
<path d="M23.238 0.0107422L11.0638 16.6124L11.0638 23.9909L23.238 7.27857L23.238 0.0107422Z" fill="#FF1243"/>
<defs>
<linearGradient id="paint0_linear_964_12824" x1="29.0752" y1="18" x2="29.3759" y2="6.27131" gradientUnits="userSpaceOnUse">
<stop offset="0.508287" stop-color="#DC002E"/>
<stop offset="0.508387" stop-color="#FF1243"/>
</linearGradient>
<linearGradient id="paint1_linear_964_12824" x1="5.21042" y1="6" x2="4.90978" y2="17.7287" gradientUnits="userSpaceOnUse">
<stop offset="0.508287" stop-color="#DC002E"/>
<stop offset="0.508387" stop-color="#FF1243"/>
</linearGradient>
</defs>
</svg>
